<svg width="32" height="32" viewBox="0 0 32 32" fill="none" xmlns="http://www.w3.org/2000/svg">
<rect x="13.3318" y="1" width="22.0202" height="22.0202" rx="5" transform="rotate(34.0571 13.3318 1)" fill="url(#paint0_linear_22_16)"/>
<path d="M10.632 22.392C9.85333 22.392 9.14933 22.216 8.52 21.864C7.77333 21.4267 7.4 20.84 7.4 20.104C7.4 19.6987 7.544 19.2987 7.832 18.904C8.664 17.752 10.3547 17.032 12.904 16.744C13.128 16.7227 13.368 16.7067 13.624 16.696C13.88 16.6747 14.152 16.664 14.44 16.664C14.76 16.664 15.1387 16.68 15.576 16.712C16.0133 16.7333 16.5093 16.7707 17.064 16.824C17.1493 16.664 17.2293 16.504 17.304 16.344C17.3893 16.184 17.4693 16.0293 17.544 15.88C17.5333 15.6347 17.4533 15.4267 17.304 15.256C17.1653 15.0853 16.9733 15.0053 16.728 15.016C16.792 14.6427 17.0107 14.456 17.384 14.456C17.7467 14.456 17.896 14.696 17.832 15.176C18.3653 13.8107 18.6427 12.584 18.664 11.496C18.3973 11.4427 18.0667 11.3787 17.672 11.304C17.2773 11.2293 16.8187 11.144 16.296 11.048C15.8053 10.9627 15.3627 10.8987 14.968 10.856C14.584 10.8027 14.2533 10.776 13.976 10.776C12.376 10.776 11.2613 11.2347 10.632 12.152C10.3867 12.5147 10.264 12.888 10.264 13.272C10.264 13.8373 10.5093 14.2907 11 14.632C11.4267 14.9093 11.944 15.048 12.552 15.048C12.84 15.048 13.1227 15.0053 13.4 14.92C13.6773 14.8347 13.9387 14.7067 14.184 14.536C14.7387 14.1413 15.016 13.6613 15.016 13.096C15.016 12.7227 14.8347 12.424 14.472 12.2C14.1733 11.976 13.8267 11.864 13.432 11.864C12.6853 11.864 12.248 12.0507 12.12 12.424L12.072 12.648C12.0507 12.7013 12.0187 12.76 11.976 12.824C11.9653 12.8133 11.96 12.792 11.96 12.76C11.96 12.408 12.1253 12.1307 12.456 11.928C12.5947 11.8427 12.744 11.784 12.904 11.752C13.0747 11.7093 13.2507 11.688 13.432 11.688C13.9013 11.688 14.2907 11.8107 14.6 12.056C14.9733 12.3227 15.16 12.6693 15.16 13.096C15.16 13.736 14.8773 14.2587 14.312 14.664C13.768 15.048 13.1813 15.24 12.552 15.24C11.8373 15.24 11.2293 15.048 10.728 14.664C10.1947 14.248 9.928 13.6827 9.928 12.968C9.928 12.552 10.04 12.152 10.264 11.768C10.872 10.7547 11.9867 10.248 13.608 10.248C13.8853 10.248 14.2213 10.2747 14.616 10.328C15.0107 10.3813 15.464 10.4667 15.976 10.584L18.664 11.224C18.6533 10.6373 18.5147 10.1253 18.248 9.688C18.216 9.60267 18.2 9.53333 18.2 9.48C18.2 9.39467 18.2373 9.352 18.312 9.352C18.4187 9.352 18.5253 9.45333 18.632 9.656C18.856 10.0187 18.9787 10.5627 19 11.288C19.3733 11.3627 19.72 11.4267 20.04 11.48C20.3707 11.5333 20.6693 11.5707 20.936 11.592C21.2987 11.0907 21.656 10.712 22.008 10.456C22.456 10.1253 22.8667 9.96 23.24 9.96C23.8267 9.96 24.12 10.1893 24.12 10.648C24.12 11.3733 23.3413 11.7573 21.784 11.8C21.1013 12.9093 20.76 14.3707 20.76 16.184C20.76 16.3227 20.76 16.4613 20.76 16.6C20.7707 16.7387 20.7813 16.8773 20.792 17.016C22.2107 16.9627 23.1173 16.5733 23.512 15.848C23.5547 15.7627 23.5973 15.6507 23.64 15.512C23.6827 15.3733 23.7253 15.2027 23.768 15C23.7893 14.936 23.8213 14.904 23.864 14.904C23.928 14.904 23.96 14.9467 23.96 15.032C23.96 15.2027 23.9013 15.4373 23.784 15.736C23.4 16.7813 22.4133 17.3253 20.824 17.368C20.9413 18.264 21.1707 19.0267 21.512 19.656C22.0027 20.5093 22.632 20.936 23.4 20.936C23.816 20.936 24.1413 20.7547 24.376 20.392C24.3973 20.3707 24.5413 20.0187 24.808 19.336C24.8293 19.304 24.8507 19.288 24.872 19.288C24.8933 19.288 24.904 19.32 24.904 19.384C24.904 19.8213 24.7493 20.2267 24.44 20.6C24.1093 20.9627 23.7307 21.144 23.304 21.144H23.208C23.176 21.1333 23.144 21.128 23.112 21.128C22.888 21.128 22.76 21.2613 22.728 21.528C22.6853 21.816 22.6373 21.96 22.584 21.96C22.5307 21.96 22.4773 21.9387 22.424 21.896C21.0587 20.9573 20.2693 19.448 20.056 17.368C19.768 17.3573 19.4373 17.336 19.064 17.304C18.7013 17.272 18.296 17.2347 17.848 17.192C16.28 19.7947 14.5627 21.4053 12.696 22.024C11.9813 22.2693 11.2933 22.392 10.632 22.392ZM21.4 11.624C21.528 11.432 21.6507 11.2773 21.768 11.16C21.8107 11.1173 21.8747 11.08 21.96 11.048C22.0453 11.0053 22.1573 10.9573 22.296 10.904C22.4453 10.8507 22.5627 10.808 22.648 10.776C22.744 10.744 22.8187 10.728 22.872 10.728C22.8827 10.728 22.888 10.7333 22.888 10.744C22.888 10.744 22.8827 10.744 22.872 10.744C22.872 10.744 22.8667 10.7493 22.856 10.76C22.6853 10.856 22.52 10.9733 22.36 11.112C22.2107 11.2507 22.072 11.416 21.944 11.608C23.0107 11.5333 23.544 11.2453 23.544 10.744C23.544 10.424 23.3467 10.264 22.952 10.264C22.7067 10.264 22.4293 10.3707 22.12 10.584C21.8213 10.7973 21.496 11.1387 21.144 11.608C21.1867 11.608 21.2293 11.608 21.272 11.608C21.3147 11.608 21.3573 11.6133 21.4 11.624ZM17.832 16.872C17.9387 16.712 18.072 16.488 18.232 16.2C18.392 15.912 18.5893 15.56 18.824 15.144C19.016 14.76 19.2773 14.2907 19.608 13.736C19.9387 13.1813 20.3333 12.5307 20.792 11.784C20.5253 11.7627 20.2427 11.736 19.944 11.704C19.656 11.6613 19.3413 11.6133 19 11.56C18.9893 11.9867 18.936 12.4507 18.84 12.952C18.744 13.4427 18.5947 13.9547 18.392 14.488C18.264 14.8613 18.104 15.2453 17.912 15.64C17.7307 16.024 17.528 16.4187 17.304 16.824L17.832 16.872ZM20.024 17.016C20.0133 16.92 20.008 16.8187 20.008 16.712C20.008 16.6053 20.008 16.4987 20.008 16.392C20.008 14.5787 20.424 13.048 21.256 11.8C21.2133 11.8 21.1707 11.8 21.128 11.8C21.0853 11.8 21.0427 11.7947 21 11.784C20.84 12.0187 20.5893 12.424 20.248 13C19.9173 13.5653 19.4907 14.312 18.968 15.24C18.776 15.6027 18.6 15.9227 18.44 16.2C18.2907 16.4667 18.1573 16.696 18.04 16.888C18.4453 16.9307 18.8133 16.9627 19.144 16.984C19.4747 16.9947 19.768 17.0053 20.024 17.016ZM10.824 22.152C11.4 22.152 12.0133 22.056 12.664 21.864C14.456 21.288 16.12 19.7253 17.656 17.176L17.144 17.112C15.6613 19.6293 14.136 20.9947 12.568 21.208C12.8133 21.048 12.936 20.7067 12.936 20.184V20.152C13.096 19.832 13.272 19.672 13.464 19.672C13.496 19.672 13.512 19.6827 13.512 19.704C13.512 20.2587 13.4693 20.5947 13.384 20.712L12.984 21C14.36 20.584 15.672 19.2773 16.92 17.08C15.704 16.952 14.7493 16.888 14.056 16.888C12.808 16.888 11.736 17.0533 10.84 17.384C10.1467 17.64 9.57067 17.9867 9.112 18.424C8.54667 18.9573 8.264 19.544 8.264 20.184C8.264 20.824 8.54133 21.3307 9.096 21.704C9.59733 22.0027 10.1733 22.152 10.824 22.152Z" fill="white"/>
<defs>
<linearGradient id="paint0_linear_22_16" x1="24.3419" y1="1" x2="24.3419" y2="23.0202" gradientUnits="userSpaceOnUse">
<stop stop-color="#978EFF"/>
<stop offset="1" stop-color="#3C24CD"/>
</linearGradient>
</defs>
</svg>
