<svg width="229" height="36" viewBox="0 0 229 36" fill="none" xmlns="http://www.w3.org/2000/svg">
<path d="M18.664 0.919983L30.328 30.968C30.776 32.12 31.272 32.92 31.816 33.368C32.392 33.784 32.904 34.008 33.352 34.04V35C32.392 34.936 31.256 34.904 29.944 34.904C28.664 34.872 27.368 34.856 26.056 34.856C24.584 34.856 23.192 34.872 21.88 34.904C20.568 34.904 19.528 34.936 18.76 35V34.04C20.392 33.976 21.416 33.704 21.832 33.224C22.28 32.712 22.184 31.64 21.544 30.008L13.384 7.68798L14.248 6.43998L6.95203 25.448C6.24803 27.208 5.81603 28.648 5.65603 29.768C5.52803 30.888 5.60803 31.752 5.89603 32.36C6.21603 32.968 6.71203 33.4 7.38403 33.656C8.08803 33.88 8.92003 34.008 9.88003 34.04V35C8.82403 34.936 7.81603 34.904 6.85603 34.904C5.89603 34.872 4.92003 34.856 3.92803 34.856C3.22403 34.856 2.55203 34.872 1.91203 34.904C1.30403 34.904 0.760029 34.936 0.280029 35V34.04C0.952029 33.912 1.64003 33.48 2.34403 32.744C3.04803 32.008 3.73603 30.76 4.40803 29L15.352 0.919983C15.864 0.951982 16.408 0.967982 16.984 0.967982C17.592 0.967982 18.152 0.951982 18.664 0.919983ZM22.024 21.176V22.136H7.72003L8.20003 21.176H22.024Z" fill="#141414"/>
<path d="M52.0237 9.51198C53.3677 9.51198 54.4557 9.68798 55.2877 10.04C56.1517 10.36 56.8237 10.808 57.3037 11.384C57.8157 11.992 58.1837 12.776 58.4077 13.736C58.6637 14.696 58.7917 15.992 58.7917 17.624V30.536C58.7917 31.88 59.0157 32.792 59.4637 33.272C59.9437 33.752 60.7437 33.992 61.8637 33.992V35C61.2557 34.968 60.3437 34.936 59.1277 34.904C57.9117 34.84 56.7117 34.808 55.5277 34.808C54.3117 34.808 53.1117 34.84 51.9277 34.904C50.7757 34.936 49.8957 34.968 49.2877 35V33.992C50.2477 33.992 50.9197 33.752 51.3037 33.272C51.6877 32.792 51.8797 31.88 51.8797 30.536V15.608C51.8797 14.808 51.7997 14.12 51.6397 13.544C51.4797 12.936 51.1917 12.472 50.7757 12.152C50.3597 11.8 49.7357 11.624 48.9037 11.624C48.0397 11.624 47.2397 11.864 46.5037 12.344C45.7997 12.824 45.2237 13.496 44.7757 14.36C44.3597 15.192 44.1517 16.136 44.1517 17.192V30.536C44.1517 31.88 44.3437 32.792 44.7277 33.272C45.1437 33.752 45.8157 33.992 46.7437 33.992V35C46.1677 34.968 45.3197 34.936 44.1997 34.904C43.1117 34.84 41.9757 34.808 40.7917 34.808C39.5757 34.808 38.3277 34.84 37.0477 34.904C35.7677 34.936 34.8077 34.968 34.1677 35V33.992C35.2877 33.992 36.0717 33.752 36.5197 33.272C36.9997 32.792 37.2397 31.88 37.2397 30.536V15.416C37.2397 13.976 37.0157 12.92 36.5677 12.248C36.1517 11.544 35.3517 11.192 34.1677 11.192V10.184C35.1917 10.28 36.1837 10.328 37.1437 10.328C38.4877 10.328 39.7357 10.28 40.8877 10.184C42.0717 10.056 43.1597 9.87998 44.1517 9.65598V13.976C44.9517 12.344 46.0397 11.192 47.4157 10.52C48.7917 9.84798 50.3277 9.51198 52.0237 9.51198Z" fill="#141414"/>
<path d="M70.276 35.336C68.836 35.336 67.636 35.064 66.676 34.52C65.716 33.976 65.012 33.256 64.564 32.36C64.116 31.432 63.892 30.424 63.892 29.336C63.892 27.96 64.196 26.84 64.804 25.976C65.444 25.112 66.26 24.408 67.252 23.864C68.244 23.32 69.284 22.872 70.372 22.52C71.492 22.168 72.548 21.832 73.54 21.512C74.564 21.16 75.38 20.76 75.988 20.312C76.628 19.832 76.948 19.224 76.948 18.488V14.744C76.948 13.912 76.804 13.176 76.516 12.536C76.26 11.864 75.844 11.352 75.268 11C74.724 10.648 74.004 10.472 73.108 10.472C72.468 10.472 71.828 10.568 71.188 10.76C70.548 10.92 70.02 11.208 69.604 11.624C70.5 11.944 71.188 12.44 71.668 13.112C72.18 13.752 72.436 14.488 72.436 15.32C72.436 16.408 72.052 17.272 71.284 17.912C70.548 18.552 69.668 18.872 68.644 18.872C67.492 18.872 66.612 18.52 66.004 17.816C65.428 17.08 65.14 16.2 65.14 15.176C65.14 14.248 65.364 13.48 65.812 12.872C66.292 12.264 66.948 11.688 67.78 11.144C68.676 10.632 69.748 10.232 70.996 9.94398C72.276 9.65598 73.652 9.51198 75.124 9.51198C76.596 9.51198 77.924 9.67198 79.108 9.99198C80.292 10.28 81.284 10.824 82.084 11.624C82.82 12.36 83.3 13.272 83.524 14.36C83.748 15.416 83.86 16.76 83.86 18.392V31.448C83.86 32.248 83.94 32.808 84.1 33.128C84.26 33.416 84.532 33.56 84.916 33.56C85.204 33.56 85.476 33.48 85.732 33.32C86.02 33.16 86.324 32.968 86.644 32.744L87.124 33.56C86.452 34.136 85.668 34.584 84.772 34.904C83.908 35.192 82.932 35.336 81.844 35.336C80.66 35.336 79.716 35.176 79.012 34.856C78.308 34.504 77.796 34.04 77.476 33.464C77.188 32.888 77.044 32.216 77.044 31.448C76.276 32.664 75.348 33.624 74.26 34.328C73.172 35 71.844 35.336 70.276 35.336ZM73.684 32.264C74.324 32.264 74.9 32.12 75.412 31.832C75.956 31.512 76.468 31 76.948 30.296V20.456C76.66 20.936 76.26 21.368 75.748 21.752C75.236 22.136 74.692 22.536 74.116 22.952C73.54 23.336 72.98 23.768 72.436 24.248C71.924 24.728 71.508 25.32 71.188 26.024C70.868 26.728 70.708 27.576 70.708 28.568C70.708 29.816 70.98 30.744 71.524 31.352C72.068 31.96 72.788 32.264 73.684 32.264Z" fill="#141414"/>
<path d="M115.065 1.01598V1.97598C113.977 2.00798 113.145 2.13598 112.569 2.35998C112.025 2.55198 111.657 2.93598 111.465 3.51198C111.273 4.05598 111.177 4.91998 111.177 6.10398V30.488C111.177 31.48 111.241 32.216 111.369 32.696C111.529 33.176 111.817 33.496 112.233 33.656C112.681 33.816 113.337 33.896 114.201 33.896H116.553C117.641 33.896 118.665 33.64 119.625 33.128C120.585 32.616 121.449 31.896 122.217 30.968C122.985 30.008 123.625 28.872 124.137 27.56C124.649 26.248 125.033 24.792 125.289 23.192H126.393C126.297 24.28 126.249 25.688 126.249 27.416C126.249 28.152 126.265 29.224 126.297 30.632C126.329 32.04 126.425 33.496 126.585 35C124.953 34.936 123.113 34.904 121.065 34.904C119.017 34.872 117.193 34.856 115.593 34.856C114.793 34.856 113.769 34.856 112.521 34.856C111.273 34.856 109.929 34.872 108.489 34.904C107.049 34.904 105.593 34.92 104.121 34.952C102.649 34.952 101.257 34.968 99.9445 35V34.04C100.969 33.976 101.737 33.848 102.249 33.656C102.761 33.464 103.097 33.08 103.257 32.504C103.449 31.928 103.545 31.064 103.545 29.912V6.10398C103.545 4.91998 103.449 4.05598 103.257 3.51198C103.097 2.93598 102.745 2.55198 102.201 2.35998C101.689 2.13598 100.937 2.00798 99.9445 1.97598V1.01598C100.745 1.04798 101.817 1.07998 103.161 1.11198C104.537 1.14398 105.993 1.15998 107.529 1.15998C108.937 1.15998 110.313 1.14398 111.657 1.11198C113.033 1.07998 114.169 1.04798 115.065 1.01598Z" fill="#141414"/>
<path d="M135.432 35.336C133.992 35.336 132.792 35.064 131.832 34.52C130.872 33.976 130.168 33.256 129.72 32.36C129.272 31.432 129.048 30.424 129.048 29.336C129.048 27.96 129.352 26.84 129.96 25.976C130.6 25.112 131.416 24.408 132.408 23.864C133.4 23.32 134.44 22.872 135.528 22.52C136.648 22.168 137.704 21.832 138.696 21.512C139.72 21.16 140.536 20.76 141.144 20.312C141.784 19.832 142.104 19.224 142.104 18.488V14.744C142.104 13.912 141.96 13.176 141.672 12.536C141.416 11.864 141 11.352 140.424 11C139.88 10.648 139.16 10.472 138.264 10.472C137.624 10.472 136.984 10.568 136.344 10.76C135.704 10.92 135.176 11.208 134.76 11.624C135.656 11.944 136.344 12.44 136.824 13.112C137.336 13.752 137.592 14.488 137.592 15.32C137.592 16.408 137.208 17.272 136.44 17.912C135.704 18.552 134.824 18.872 133.8 18.872C132.648 18.872 131.768 18.52 131.16 17.816C130.584 17.08 130.296 16.2 130.296 15.176C130.296 14.248 130.52 13.48 130.968 12.872C131.448 12.264 132.104 11.688 132.936 11.144C133.832 10.632 134.904 10.232 136.152 9.94398C137.432 9.65598 138.808 9.51198 140.28 9.51198C141.752 9.51198 143.08 9.67198 144.264 9.99198C145.448 10.28 146.44 10.824 147.24 11.624C147.976 12.36 148.456 13.272 148.68 14.36C148.904 15.416 149.016 16.76 149.016 18.392V31.448C149.016 32.248 149.096 32.808 149.256 33.128C149.416 33.416 149.688 33.56 150.072 33.56C150.36 33.56 150.632 33.48 150.888 33.32C151.176 33.16 151.48 32.968 151.8 32.744L152.28 33.56C151.608 34.136 150.824 34.584 149.928 34.904C149.064 35.192 148.088 35.336 147 35.336C145.816 35.336 144.872 35.176 144.168 34.856C143.464 34.504 142.952 34.04 142.632 33.464C142.344 32.888 142.2 32.216 142.2 31.448C141.432 32.664 140.504 33.624 139.416 34.328C138.328 35 137 35.336 135.432 35.336ZM138.84 32.264C139.48 32.264 140.056 32.12 140.568 31.832C141.112 31.512 141.624 31 142.104 30.296V20.456C141.816 20.936 141.416 21.368 140.904 21.752C140.392 22.136 139.848 22.536 139.272 22.952C138.696 23.336 138.136 23.768 137.592 24.248C137.08 24.728 136.664 25.32 136.344 26.024C136.024 26.728 135.864 27.576 135.864 28.568C135.864 29.816 136.136 30.744 136.68 31.352C137.224 31.96 137.944 32.264 138.84 32.264Z" fill="#141414"/>
<path d="M177.556 9.65598V29.768C177.556 31.208 177.78 32.28 178.228 32.984C178.676 33.656 179.476 33.992 180.628 33.992V35C179.636 34.904 178.644 34.856 177.652 34.856C176.308 34.856 175.06 34.904 173.908 35C172.756 35.096 171.668 35.272 170.644 35.528V31.208C169.876 32.808 168.804 33.96 167.428 34.664C166.084 35.336 164.58 35.672 162.916 35.672C161.572 35.672 160.484 35.496 159.652 35.144C158.82 34.792 158.164 34.344 157.684 33.8C157.14 33.192 156.756 32.392 156.532 31.4C156.308 30.408 156.196 29.128 156.196 27.56V15.416C156.196 13.976 155.972 12.92 155.524 12.248C155.108 11.544 154.308 11.192 153.124 11.192V10.184C154.148 10.28 155.14 10.328 156.1 10.328C157.444 10.328 158.692 10.28 159.844 10.184C161.028 10.056 162.116 9.87998 163.108 9.65598V29.528C163.108 30.328 163.172 31.032 163.3 31.64C163.46 32.248 163.748 32.728 164.164 33.08C164.58 33.4 165.188 33.56 165.988 33.56C166.852 33.56 167.62 33.32 168.292 32.84C168.996 32.36 169.556 31.704 169.972 30.872C170.42 30.008 170.644 29.048 170.644 27.992V15.416C170.644 13.976 170.42 12.92 169.972 12.248C169.556 11.544 168.756 11.192 167.572 11.192V10.184C168.596 10.28 169.588 10.328 170.548 10.328C171.892 10.328 173.14 10.28 174.292 10.184C175.476 10.056 176.564 9.87998 177.556 9.65598Z" fill="#141414"/>
<path d="M199.273 9.51198C200.297 9.51198 201.129 9.73598 201.769 10.184C202.409 10.6 202.873 11.144 203.161 11.816C203.481 12.488 203.641 13.192 203.641 13.928C203.641 15.112 203.289 16.088 202.585 16.856C201.913 17.592 201.017 17.96 199.897 17.96C198.777 17.96 197.897 17.688 197.257 17.144C196.649 16.568 196.345 15.816 196.345 14.888C196.345 13.992 196.537 13.256 196.921 12.68C197.337 12.072 197.849 11.56 198.457 11.144C198.009 11.016 197.561 11.032 197.113 11.192C196.505 11.288 195.929 11.544 195.385 11.96C194.841 12.344 194.377 12.84 193.993 13.448C193.609 14.024 193.305 14.664 193.081 15.368C192.857 16.04 192.745 16.696 192.745 17.336V30.056C192.745 31.592 193.113 32.632 193.849 33.176C194.617 33.72 195.753 33.992 197.257 33.992V35C196.521 34.968 195.449 34.936 194.041 34.904C192.633 34.84 191.161 34.808 189.625 34.808C188.345 34.808 187.049 34.84 185.737 34.904C184.425 34.936 183.433 34.968 182.761 35V33.992C183.881 33.992 184.665 33.752 185.113 33.272C185.593 32.792 185.833 31.88 185.833 30.536V15.416C185.833 13.976 185.609 12.92 185.161 12.248C184.745 11.544 183.945 11.192 182.761 11.192V10.184C183.785 10.28 184.777 10.328 185.737 10.328C187.081 10.328 188.329 10.28 189.481 10.184C190.665 10.056 191.753 9.87998 192.745 9.65598V14.12C193.129 13.256 193.641 12.472 194.281 11.768C194.921 11.064 195.657 10.52 196.489 10.136C197.321 9.71998 198.249 9.51198 199.273 9.51198Z" fill="#141414"/>
<path d="M211.792 35.336C210.352 35.336 209.152 35.064 208.192 34.52C207.232 33.976 206.528 33.256 206.08 32.36C205.632 31.432 205.408 30.424 205.408 29.336C205.408 27.96 205.712 26.84 206.32 25.976C206.96 25.112 207.776 24.408 208.768 23.864C209.76 23.32 210.8 22.872 211.888 22.52C213.008 22.168 214.064 21.832 215.056 21.512C216.08 21.16 216.896 20.76 217.504 20.312C218.144 19.832 218.464 19.224 218.464 18.488V14.744C218.464 13.912 218.32 13.176 218.032 12.536C217.776 11.864 217.36 11.352 216.784 11C216.24 10.648 215.52 10.472 214.624 10.472C213.984 10.472 213.344 10.568 212.704 10.76C212.064 10.92 211.536 11.208 211.12 11.624C212.016 11.944 212.704 12.44 213.184 13.112C213.696 13.752 213.952 14.488 213.952 15.32C213.952 16.408 213.568 17.272 212.8 17.912C212.064 18.552 211.184 18.872 210.16 18.872C209.008 18.872 208.128 18.52 207.52 17.816C206.944 17.08 206.656 16.2 206.656 15.176C206.656 14.248 206.88 13.48 207.328 12.872C207.808 12.264 208.464 11.688 209.296 11.144C210.192 10.632 211.264 10.232 212.512 9.94398C213.792 9.65598 215.168 9.51198 216.64 9.51198C218.112 9.51198 219.44 9.67198 220.624 9.99198C221.808 10.28 222.8 10.824 223.6 11.624C224.336 12.36 224.816 13.272 225.04 14.36C225.264 15.416 225.376 16.76 225.376 18.392V31.448C225.376 32.248 225.456 32.808 225.616 33.128C225.776 33.416 226.048 33.56 226.432 33.56C226.72 33.56 226.992 33.48 227.248 33.32C227.536 33.16 227.84 32.968 228.16 32.744L228.64 33.56C227.968 34.136 227.184 34.584 226.288 34.904C225.424 35.192 224.448 35.336 223.36 35.336C222.176 35.336 221.232 35.176 220.528 34.856C219.824 34.504 219.312 34.04 218.992 33.464C218.704 32.888 218.56 32.216 218.56 31.448C217.792 32.664 216.864 33.624 215.776 34.328C214.688 35 213.36 35.336 211.792 35.336ZM215.2 32.264C215.84 32.264 216.416 32.12 216.928 31.832C217.472 31.512 217.984 31 218.464 30.296V20.456C218.176 20.936 217.776 21.368 217.264 21.752C216.752 22.136 216.208 22.536 215.632 22.952C215.056 23.336 214.496 23.768 213.952 24.248C213.44 24.728 213.024 25.32 212.704 26.024C212.384 26.728 212.224 27.576 212.224 28.568C212.224 29.816 212.496 30.744 213.04 31.352C213.584 31.96 214.304 32.264 215.2 32.264Z" fill="#141414"/>
</svg>
